# xmcd
#
# Track frame offsets:
#	150
#	11925
#	25275
#	36300
#	51450
#	64425
#	75975
#	91725
#	108750
#	123675
#	137250
#	152925
#	164475
#	179475
#	195000
#	207525
#
# Disc length: 2956 seconds
#
# Revision: 0
# Processed by: cddbd v1.5.2PL0 Copyright (c) Steve Scherf et al.
# Submitted via: EasyCDDAExtractor 16.0.6.1
#
DISCID=db0b8a10
DTITLE=Ξηντάρης Γιώργος - Ρεμπέτικα βράδια-Γ. Ξηντάρης
DYEAR=1995
DGENRE=Ρεμπέτικη
TTITLE0=Στου Βάβουλα τη γούβα [Στ. Κυρομύτη-Στ. Παγιουμτζή]
TTITLE1=Λιγάκι δεν εντράπηκες [αγνώστου]
TTITLE2=Η καλοκαιριά [Γ. Μαλλίδη-Θ. Σοφού-Κ. Παπαδόπουλου]
TTITLE3=Αθηναίϊσα [Β. Τσιτσάνη]
TTITLE4=Ισοβίτης [Μ. Βαμβακάρη]
TTITLE5=Η Ελένη η ζωντοχήρα [Ι. Εϊζηρίδη]
TTITLE6=Μάπες [αγννώστου]
TTITLE7=Πάλι τραγούδι θα σάς πω [Μ. Βαμβακάρη]
TTITLE8=Κάνω τσάρκα [αγνώστου]
TTITLE9=Όσοι έχουν πολλά λεφτά [Μ. Βαμβακάρη]
TTITLE10=Εσένα και τον άντρα σου [αγνώστου]
TTITLE11=Η μόνη μου παρηγοριά [Στ. Κηρομύτη]
TTITLE12=Ματσάκια πεντοχίλιαρα [Μ. Βαμβακάρη]
TTITLE13=Δεν τον θέλω μάννα μου [Μ. Βαμβακάρη]
TTITLE14=Είσαι μικρό μελαχροινό [Κ. Μάνεση-Κ. Ρηγόπουλου-Γ.Ροββερτάκη]
TTITLE15=Τα δυό σου μάτια [Π. Οικονόμου-Κ. Γρυπάρη]
EXTD=
EXTT0=
EXTT1=
EXTT2=
EXTT3=
EXTT4=
EXTT5=
EXTT6=
EXTT7=
EXTT8=
EXTT9=
EXTT10=
EXTT11=
EXTT12=
EXTT13=
EXTT14=
EXTT15=
PLAYORDER=
